<svg width="92" height="34" viewBox="0 0 92 34" fill="none" xmlns="http://www.w3.org/2000/svg">
<path d="M15.388 5.552H5.308V11.528H15.1V16.28H5.308V26H0.34V0.799998H15.388V5.552ZM23.436 11.096C23.868 9.944 24.576 9.08 25.56 8.504C26.568 7.928 27.684 7.64 28.908 7.64V12.824C27.492 12.656 26.22 12.944 25.092 13.688C23.988 14.432 23.436 15.668 23.436 17.396V26H18.792V8H23.436V11.096ZM43.504 8H48.148V26H43.504V23.984C42.376 25.664 40.588 26.504 38.14 26.504C36.172 26.504 34.54 25.844 33.244 24.524C31.972 23.204 31.336 21.38 31.336 19.052V8H35.98V18.476C35.98 19.676 36.304 20.6 36.952 21.248C37.6 21.872 38.464 22.184 39.544 22.184C40.744 22.184 41.704 21.812 42.424 21.068C43.144 20.324 43.504 19.208 43.504 17.72V8ZM71.5919 12.464H67.5239V19.952C67.5239 20.576 67.6799 21.032 67.9919 21.32C68.3039 21.608 68.7599 21.776 69.3599 21.824C69.9599 21.848 70.7039 21.836 71.5919 21.788V26C68.3999 26.36 66.1439 26.06 64.8239 25.1C63.5279 24.14 62.8799 22.424 62.8799 19.952V12.464H59.7479V8H62.8799V4.364L67.5239 2.96V8H71.5919V12.464ZM86.9889 8H91.9569L85.4049 26C84.4689 28.592 83.2209 30.464 81.6609 31.616C80.1249 32.792 78.2049 33.32 75.9009 33.2V28.88C77.1489 28.904 78.1329 28.64 78.8529 28.088C79.5969 27.536 80.1849 26.648 80.6169 25.424L73.2369 8H78.3129L82.9929 20.096L86.9889 8Z" fill="#233506"/>
<path d="M54.7053 5.84C53.9373 5.84 53.2653 5.564 52.6893 5.012C52.1373 4.436 51.8613 3.764 51.8613 2.996C51.8613 2.228 52.1373 1.556 52.6893 0.979998C53.2653 0.403998 53.9373 0.115999 54.7053 0.115999C55.4973 0.115999 56.1693 0.403998 56.7213 0.979998C57.2973 1.556 57.5853 2.228 57.5853 2.996C57.5853 3.764 57.2973 4.436 56.7213 5.012C56.1693 5.564 55.4973 5.84 54.7053 5.84ZM52.4013 26V8H57.0453V26H52.4013Z" fill="#FF800B"/>
</svg>
